<?xml version="1.0" encoding="UTF-8"?>
<svg width="752pt" height="752pt" version="1.1" viewBox="0 0 752 752" xmlns="http://www.w3.org/2000/svg">
 <g fill="#fff">
  <path d="m359.31 577.37c0.57812 0.23828 1.1523 0.46875 1.7461 0.64453 0.59766 0.17969 1.1992 0.29688 1.8086 0.42188 0.58594 0.10938 1.1641 0.21875 1.7578 0.27344 0.60938 0.0625 1.2188 0.070312 1.8281 0.070312s1.2188-0.007812 1.8281-0.070312c0.59375-0.058594 1.168-0.16016 1.7539-0.27344 0.60938-0.11719 1.2188-0.24219 1.8203-0.42188 0.59375-0.17578 1.1602-0.40625 1.7344-0.64062 0.55078-0.22656 1.0977-0.44922 1.6367-0.73047 0.60156-0.31641 1.168-0.69141 1.7383-1.0742 0.32812-0.22266 0.69141-0.37891 1.0078-0.625l152-116.39c8.3047-6.3594 9.875-18.25 3.5234-26.555-6.3594-8.3047-18.25-9.8828-26.559-3.5234l-140.49 107.58-140.48-107.59c-8.3047-6.3594-20.195-4.7812-26.555 3.5234-2.6328 3.4375-3.9023 7.4844-3.9023 11.504 0 5.6914 2.5586 11.328 7.4258 15.055l151.99 116.4c0.3125 0.24219 0.67188 0.39453 0.99609 0.61719 0.57812 0.38281 1.1445 0.76172 1.7578 1.0859 0.52734 0.27734 1.0664 0.5 1.6211 0.71484z"/>
  <path d="m355.96 452.82c0.55859 0.375 1.1133 0.74219 1.7109 1.0547 0.53906 0.28516 1.0938 0.51172 1.6641 0.73828 0.5625 0.23047 1.1289 0.46094 1.7109 0.62891 0.60547 0.17969 1.2188 0.30859 1.8359 0.42578 0.57813 0.10938 1.1523 0.21875 1.7383 0.27344 0.60938 0.0625 1.2227 0.070312 1.8359 0.070312 0.60547 0 1.207-0.007812 1.8203-0.070312 0.59375-0.058594 1.1758-0.16016 1.7578-0.27344 0.60938-0.11719 1.2109-0.24219 1.8125-0.42187 0.59766-0.17578 1.168-0.40625 1.7461-0.64453 0.54297-0.22266 1.0859-0.44531 1.6211-0.71875 0.61719-0.31641 1.1875-0.69922 1.7695-1.0898 0.32031-0.21875 0.67188-0.37109 0.98438-0.60937l152.01-116.41c8.3047-6.3633 9.8828-18.25 3.5234-26.559-6.3594-8.3047-18.25-9.8828-26.559-3.5234l-140.48 107.59-140.48-107.59c-8.3047-6.3594-20.199-4.7812-26.559 3.5234-2.6328 3.4375-3.9023 7.4883-3.9023 11.504 0 5.6914 2.5586 11.324 7.4219 15.055l151.99 116.41c0.32422 0.25391 0.69141 0.41406 1.0312 0.64062z"/>
  <path d="m355.91 330c0.58594 0.39453 1.168 0.78125 1.7891 1.1016 0.51953 0.27344 1.0625 0.49219 1.6016 0.71484 0.58203 0.23828 1.1641 0.47266 1.7656 0.64844 0.59766 0.17969 1.1953 0.29687 1.8008 0.41797 0.58594 0.11328 1.168 0.22266 1.7656 0.28125 0.60547 0.058594 1.2109 0.066406 1.8242 0.066406 0.60938 0 1.2109-0.003906 1.8242-0.066406 0.59766-0.058594 1.1758-0.16406 1.7617-0.28125 0.60938-0.11328 1.207-0.23828 1.8086-0.41797 0.59766-0.17969 1.168-0.40625 1.7539-0.64453 0.54297-0.22266 1.0859-0.44531 1.6133-0.71875 0.61719-0.32031 1.1875-0.69922 1.7695-1.0938 0.32031-0.21875 0.67188-0.37109 0.98438-0.60547l152-116.4c8.3008-6.3594 9.8828-18.246 3.5234-26.559-6.3594-8.3047-18.25-9.8828-26.559-3.5234l-140.49 107.58-140.48-107.58c-8.3047-6.3594-20.195-4.7812-26.555 3.5234-2.6328 3.4375-3.9023 7.4883-3.9023 11.504 0 5.6914 2.5586 11.324 7.4258 15.055l151.99 116.4c0.30859 0.23437 0.64844 0.38281 0.97266 0.59766z"/>
 </g>
</svg>
